# xmcd
#
# Track frame offsets: 
#        150
#        17062
#        32930
#        50117
#        66485
#        81417
#        96670
#        113882
#        123477
#        138267
#        152982
#        184700
#
# Disc length: 2808 seconds
#
# Revision: 0
# Processed by: cddbd v1.5.2PL0 Copyright (c) Steve Scherf et al.
# Submitted via: ExactAudioCopy v0.95b4
#
DISCID=b40af60c
DTITLE=The Boys Town Gang - Best Of Boys Town Gang
DYEAR=1900
DGENRE=
TTITLE0=Can't Take My Eyes Off You
TTITLE1=A Good Man
TTITLE2=Brand New Me
TTITLE3=In And Out Of Love
TTITLE4=(Here I Am) Waiting For You
TTITLE5=I Just Can't Help Believing
TTITLE6=Dance Trance
TTITLE7=When I Was Young
TTITLE8=Yester-Me, Yester-You, Yesterday
TTITLE9=When Will I See You Again
TTITLE10=Come And Get Your Love
TTITLE11=Signed, Sealed, Delivered (I'm Yours)
EXTD=
EXTT0=
EXTT1=
EXTT2=
EXTT3=
EXTT4=
EXTT5=
EXTT6=
EXTT7=
EXTT8=
EXTT9=
EXTT10=
EXTT11=
PLAYORDER=
